# xmcd
#
# Track frame offsets: 
#        150
#        19467
#        33097
#        63452
#        79467
#        96957
#        106570
#        117942
#        129654
#        146492
#        164475
#        178865
#        198582
#        218170
#        234402
#
# Disc length: 3480 seconds
#
# Revision: 1
# Processed by: cddbd v1.5.2PL0 Copyright (c) Steve Scherf et al.
# Submitted via: ExactAudioCopy v1.0b4
#
DISCID=d50d960f
DTITLE=Kim Wilson - My Blues
DYEAR=1997
DGENRE=Blues
TTITLE0=Everything I Do Is Wrong
TTITLE1=Trying To Make A Living
TTITLE2=Five Long Years
TTITLE3=Gumbo Blues
TTITLE4=Things Ain't Right
TTITLE5=Tell Me Why
TTITLE6=Break It Up Baby
TTITLE7=Hop, Skip and Jump
TTITLE8=Date Bait
TTITLE9=West Helena Woman
TTITLE10=Too Late Old Man
TTITLE11=Everything's Gonna Be Alright
TTITLE12=Your Funeral and My Trial
TTITLE13=Oh Baby
TTITLE14=My Blues
EXTD=
EXTT0=
EXTT1=
EXTT2=
EXTT3=
EXTT4=
EXTT5=
EXTT6=
EXTT7=
EXTT8=
EXTT9=
EXTT10=
EXTT11=
EXTT12=
EXTT13=
EXTT14=
PLAYORDER=
